<svg xmlns="http://www.w3.org/2000/svg"
  xmlns:xlink="http://www.w3.org/1999/xlink" viewBox="60 100 450 125">
  <defs>
    <symbol id="a" overflow="visible">
      <path d="M3.734 0c.684-8.145 1.188-14.785 1.5-19.922A962.732 962.732 0 0 0 6.531-47.89c.29-9.27.438-16.859.438-22.765 3.77.074 7.101.11 10 .11 1.965 0 4.789-.036 8.468-.11l-.984 18.75-1.25 29.281-.172 7.203c4.758.106 7.86.156 9.297.156 7.277 0 12.785-.117 16.516-.359L47.937 0c-7.28-.07-14.214-.11-20.796-.11-8.907 0-16.711.04-23.407.11Zm0 0" style="stroke:none"/>
    </symbol>
    <symbol id="b" overflow="visible">
      <path d="M38.438-72c4.425 0 8.687.746 12.78 2.234 4.09 1.48 7.677 3.852 10.75 7.11a32.053 32.053 0 0 1 6.891 11.265c1.52 4.243 2.282 9.121 2.282 14.641 0 5.805-.84 11.129-2.516 15.969-1.68 4.843-4.098 8.96-7.25 12.343C58.227-5.05 54.465-2.57 50.094-1a40.406 40.406 0 0 1-13.657 2.344c-4.68 0-9.164-.77-13.453-2.297-4.28-1.54-8.007-4.024-11.172-7.453-3.167-3.434-5.417-7.258-6.75-11.469-1.324-4.207-1.984-8.883-1.984-14.031 0-7.551 1.399-14.18 4.203-19.89 2.809-5.716 6.977-10.18 12.5-13.392C25.301-70.394 31.52-72 38.438-72Zm-.75 15.578c-3.188 0-6.07.98-8.641 2.938-2.574 1.949-4.555 4.66-5.938 8.125-1.375 3.46-2.062 7.175-2.062 11.14 0 3.668.625 7.024 1.875 10.063 1.258 3.031 3.176 5.402 5.75 7.11 2.582 1.698 5.312 2.546 8.187 2.546 3.07 0 5.883-.953 8.438-2.86 2.558-1.913 4.516-4.609 5.86-8.078a29.948 29.948 0 0 0 2.015-10.89c0-3.695-.629-7.102-1.875-10.219-1.242-3.121-3.07-5.55-5.484-7.281-2.407-1.727-5.118-2.594-8.126-2.594Zm0 0" style="stroke:none"/>
    </symbol>
    <symbol id="c" overflow="visible">
      <path d="M53.203-17.234c-.336 2.03-.738 4.87-1.203 8.515-.469 3.637-.79 6.457-.953 8.453-5.918 1.07-11.2 1.61-15.844 1.61-4.492 0-8.668-.7-12.531-2.094-3.856-1.395-7.399-3.688-10.625-6.875-3.219-3.195-5.524-6.953-6.906-11.266-1.375-4.308-2.063-9.144-2.063-14.5 0-6.238.93-11.847 2.797-16.828 1.863-4.988 4.547-9.148 8.047-12.484 3.496-3.332 7.336-5.711 11.515-7.14A39.616 39.616 0 0 1 38.392-72c4.09 0 9.156.66 15.187 1.969l.094 4.344c.05 1.906.129 3.996.234 6.265l.297 5.906c-3.242-.964-5.867-1.625-7.875-1.968-2-.34-3.863-.516-5.578-.516-3.73 0-7.09.934-10.078 2.797-2.992 1.867-5.348 4.574-7.063 8.125-1.71 3.555-2.562 7.488-2.562 11.797 0 3.937.719 7.316 2.156 10.125 1.434 2.812 3.379 4.988 5.828 6.515 2.446 1.532 5.469 2.297 9.063 2.297 1.965 0 4.11-.195 6.422-.594 2.308-.394 5.207-1.16 8.687-2.296Zm0 0" style="stroke:none"/>
    </symbol>
    <symbol id="d" overflow="visible">
      <path d="m4.313 0 1.625-28.266.75-20.593.203-9.157c.05-2.652.078-5.21.078-7.672l-.032-4.968c4.34.074 7.594.11 9.75.11 1.684 0 4.618-.036 8.797-.11-.668 9.906-1.097 18.66-1.28 26.25l22.577-.047c.133-2.832.266-6.656.39-11.469.122-4.808.188-8.098.188-9.86 0-.933-.035-2.562-.093-4.874l9.843.11c1.02 0 3.926-.036 8.72-.11-1 17.742-1.645 30.933-1.923 39.578C63.633-22.43 63.5-12.07 63.5 0l-9.047-.11c-1.355 0-4.598.04-9.719.11.696-8.207 1.172-17.766 1.422-28.672H23.531L22.828 0l-9.625-.11c-1.219 0-4.183.04-8.89.11Zm0 0" style="stroke:none"/>
    </symbol>
    <symbol id="e" overflow="visible">
      <path d="M4.11 0c.683-8.902 1.187-16.36 1.5-22.36.32-5.995.644-13.976.968-23.937.32-9.957.484-16.555.484-19.797l-.046-4.562c6.527.074 14.43.11 23.703.11 8.539 0 16.078-.036 22.61-.11l-.079 1.719c-.031.406-.102 1.91-.203 4.5l-.25 5.64a71.193 71.193 0 0 0-.094 3.672c-5.336-.27-9.816-.406-13.437-.406-3.993 0-6.684.011-8.078.031-1.399.012-3.575.086-6.532.219l-.5 11.86c3.258.105 7.063.155 11.407.155 1.55 0 5.675-.117 12.374-.359-.28 4.418-.542 9.68-.78 15.781-4.794-.07-8.477-.11-11.048-.11-3.824 0-8.101.122-12.828.36l-.5 12.578h4.782c1.402 0 4.32-.05 8.75-.156l8.593-.25c1.27-.027 3.399-.172 6.39-.422A607.639 607.639 0 0 0 50.47 0c-6.75-.07-14.153-.11-22.203-.11L10-.046Zm0 0" style="stroke:none"/>
    </symbol>
    <symbol id="f" overflow="visible">
      <path d="M4.063 0c.527-6.07.945-11.54 1.25-16.406.3-4.864.562-10.504.78-16.922.227-6.414.395-13.188.5-20.313.114-7.12.173-12.797.173-17.015 3.457.105 6.254.156 8.39.156 2.207 0 4.899-.07 8.078-.219a195.58 195.58 0 0 1 9.313-.234c3.539 0 6.691.176 9.453.516 2.07.242 3.957.742 5.656 1.5 1.707.761 3.14 1.683 4.297 2.765a15.524 15.524 0 0 1 2.906 3.656c.778 1.344 1.383 2.926 1.813 4.735.426 1.804.64 3.742.64 5.812 0 2.313-.238 4.48-.703 6.5a21.21 21.21 0 0 1-2.218 5.703 16.799 16.799 0 0 1-3.828 4.594c-1.532 1.293-3.68 2.617-6.438 3.969l2.156 6.562c.602 1.836 1.254 3.7 1.953 5.594l5.563 15.172c.238.648.68 1.941 1.328 3.875-4.574-.07-7.648-.11-9.219-.11-1.992 0-5.258.04-9.797.11a889.11 889.11 0 0 1-2.406-9.984c-.469-2.04-.871-3.614-1.203-4.72-.668-2.444-1.652-5.878-2.953-10.296L25.28-39.64c1.489.343 2.953.515 4.39.515 2.02 0 3.852-.379 5.5-1.14 1.645-.758 2.892-1.93 3.735-3.516.84-1.59 1.266-3.27 1.266-5.032 0-1.476-.32-2.773-.953-3.89-.637-1.121-1.645-1.961-3.016-2.516-1.367-.55-3.473-.828-6.312-.828-.97 0-1.977.027-3.016.078-1.043.043-2.254.086-3.625.125-.367 7.074-.691 15.7-.969 25.875C22.008-19.789 21.832-9.8 21.75 0c-4.625-.07-7.633-.11-9.016-.11-1.605 0-4.496.04-8.671.11Zm0 0" style="stroke:none"/>
    </symbol>
  </defs>
  <path d="m291.121 109.2 210.719 29.76v-7.202l-210.719-29.52-210.48 29.52v7.203Zm0 0" style="stroke:none;fill-rule:evenodd;fill:red;fill-opacity:1"/>
  <path d="M.001 0 210.72-29.76v7.202L0 6.962l-210.48-29.52v-7.203L0 .001" style="fill:none;stroke-width:.48;stroke-linecap:round;stroke-linejoin:round;stroke:red;stroke-opacity:1;stroke-miterlimit:10" transform="matrix(1 0 0 -1 291.12 109.2)"/>
  <g style="fill:red;fill-opacity:1">
    <use xlink:href="#a" x="108.719" y="222.959"/>
    <use xlink:href="#b" x="158.863" y="222.959"/>
    <use xlink:href="#c" x="232.848" y="222.959"/>
    <use xlink:href="#d" x="290.144" y="222.959"/>
    <use xlink:href="#e" x="360.041" y="222.959"/>
    <use xlink:href="#f" x="416.401" y="222.959"/>
  </g>
  <path d="M112.453 618.958c.684 8.145 1.188 14.785 1.5 19.922a962.732 962.732 0 0 1 1.297 27.969c.29 9.27.438 16.86.438 22.765 3.769-.074 7.101-.11 10-.11 1.964 0 4.789.036 8.468.11l-.984-18.75-1.25-29.28-.172-7.204c4.758-.106 7.86-.156 9.297-.156 7.277 0 12.785.117 16.516.36l-.907-15.626c-7.281.07-14.215.11-20.797.11-8.906 0-16.71-.04-23.406-.11Zm84.848 72c4.426 0 8.687-.746 12.781-2.234 4.09-1.48 7.676-3.852 10.75-7.11a32.053 32.053 0 0 0 6.89-11.265c1.52-4.243 2.282-9.121 2.282-14.64 0-5.806-.84-11.13-2.516-15.97-1.68-4.843-4.097-8.96-7.25-12.343-3.148-3.387-6.91-5.868-11.281-7.438a40.406 40.406 0 0 0-13.656-2.344c-4.68 0-9.164.77-13.453 2.297-4.282 1.54-8.008 4.024-11.172 7.453-3.168 3.434-5.418 7.258-6.75 11.47-1.324 4.206-1.985 8.882-1.985 14.03 0 7.551 1.399 14.18 4.204 19.89 2.808 5.716 6.976 10.18 12.5 13.392 5.52 3.207 11.738 4.812 18.656 4.812Zm-.75-15.578c-3.188 0-6.07-.98-8.64-2.938-2.575-1.949-4.556-4.66-5.938-8.125-1.375-3.46-2.063-7.175-2.063-11.14 0-3.668.625-7.024 1.875-10.063 1.258-3.03 3.176-5.402 5.75-7.11 2.582-1.698 5.313-2.546 8.188-2.546 3.07 0 5.882.953 8.437 2.86 2.559 1.913 4.516 4.609 5.86 8.078a29.948 29.948 0 0 1 2.015 10.89c0 3.696-.629 7.102-1.875 10.219-1.242 3.121-3.07 5.55-5.484 7.281-2.406 1.727-5.117 2.594-8.125 2.594Zm89.5-39.188c-.336-2.03-.738-4.87-1.203-8.515-.47-3.637-.79-6.457-.953-8.453-5.918-1.07-11.2-1.61-15.844-1.61-4.492 0-8.668.7-12.531 2.094-3.856 1.395-7.399 3.688-10.625 6.875a27.472 27.472 0 0 0-6.907 11.266c-1.375 4.308-2.062 9.144-2.062 14.5 0 6.238.93 11.847 2.797 16.828 1.863 4.988 4.547 9.148 8.047 12.484 3.496 3.332 7.335 5.711 11.515 7.14a39.616 39.616 0 0 0 12.953 2.157c4.09 0 9.157-.66 15.188-1.969l.094-4.343c.05-1.907.128-3.997.234-6.266l.297-5.906c-3.242.965-5.867 1.625-7.875 1.968-2 .34-3.863.516-5.578.516-3.73 0-7.09-.934-10.078-2.797-2.993-1.867-5.348-4.574-7.063-8.125-1.71-3.554-2.562-7.488-2.562-11.797 0-3.937.718-7.316 2.156-10.125 1.433-2.812 3.379-4.988 5.828-6.515 2.445-1.532 5.469-2.297 9.062-2.297 1.965 0 4.11.195 6.422.594 2.309.394 5.207 1.16 8.688 2.296Zm8.406-17.234 1.625 28.266.75 20.593.203 9.157c.05 2.652.078 5.21.078 7.672l-.031 4.968c4.34-.074 7.594-.11 9.75-.11 1.684 0 4.617.036 8.797.11-.668-9.906-1.098-18.66-1.281-26.25l22.578.047c.133 2.832.265 6.656.39 11.469.122 4.809.188 8.098.188 9.86 0 .933-.035 2.562-.094 4.874l9.844-.11c1.02 0 3.926.036 8.719.11-1-17.742-1.645-30.933-1.922-39.578-.274-8.648-.406-19.008-.406-31.078l-9.047.11c-1.356 0-4.598-.04-9.72-.11.696 8.207 1.173 17.766 1.423 28.672h-22.625l-.703-28.672-9.625.11c-1.22 0-4.184-.04-8.891-.11Zm69.695 0c.684 8.902 1.188 16.36 1.5 22.36.32 5.996.645 13.976.97 23.937.32 9.957.483 16.555.483 19.797l-.046 4.562c6.527-.074 14.43-.11 23.703-.11 8.539 0 16.078.036 22.61.11l-.079-1.718c-.031-.407-.102-1.91-.203-4.5l-.25-5.641a71.193 71.193 0 0 1-.094-3.672c-5.336.27-9.816.406-13.437.406-3.993 0-6.684-.011-8.079-.03-1.398-.013-3.574-.087-6.53-.22l-.5-11.86c3.257-.105 7.062-.155 11.405-.155 1.551 0 5.676.117 12.375.36-.28-4.419-.543-9.68-.78-15.782-4.794.07-8.477.11-11.048.11-3.824 0-8.101-.122-12.828-.36l-.5-12.578h4.781c1.403 0 4.32.05 8.75.156l8.594.25c1.27.027 3.399.172 6.39.422a607.634 607.634 0 0 1-.827-15.844c-6.75.07-14.153.11-22.203.11l-18.266-.063Zm56.313 0c.527 6.07.945 11.54 1.25 16.406.3 4.864.562 10.504.781 16.922.227 6.414.395 13.188.5 20.313.113 7.12.172 12.797.172 17.015 3.457-.105 6.254-.156 8.39-.156 2.208 0 4.899.07 8.079.219 3.183.152 6.289.234 9.312.234 3.54 0 6.692-.176 9.453-.515 2.07-.243 3.957-.743 5.657-1.5 1.707-.762 3.14-1.684 4.296-2.766a15.524 15.524 0 0 0 2.907-3.656c.777-1.344 1.383-2.926 1.812-4.735.426-1.804.64-3.742.64-5.812 0-2.313-.237-4.48-.702-6.5a21.21 21.21 0 0 0-2.219-5.703 16.799 16.799 0 0 0-3.828-4.594c-1.531-1.293-3.68-2.617-6.438-3.969l2.157-6.562a157.39 157.39 0 0 1 1.953-5.594l5.562-15.172c.238-.648.68-1.941 1.328-3.875-4.574.07-7.648.11-9.218.11-1.993 0-5.258-.04-9.797-.11-.45 1.79-1.254 5.117-2.407 9.984-.468 2.04-.87 3.614-1.203 4.72-.668 2.444-1.652 5.878-2.953 10.296l-4.265 14.64a19.477 19.477 0 0 1 4.39-.515c2.02 0 3.852.379 5.5 1.14 1.645.759 2.89 1.93 3.735 3.516.84 1.59 1.265 3.27 1.265 5.032 0 1.476-.32 2.773-.953 3.89-.637 1.121-1.644 1.961-3.016 2.516-1.367.55-3.472.828-6.312.828-.969 0-1.977-.027-3.016-.078a286.991 286.991 0 0 0-3.625-.125c-.367-7.074-.691-15.7-.968-25.875a1621.61 1621.61 0 0 1-.532-29.969c-4.625.07-7.632.11-9.015.11-1.606 0-4.496-.04-8.672-.11Zm0 0" style="fill:none;stroke-width:2.644;stroke-linecap:round;stroke-linejoin:round;stroke:red;stroke-opacity:1;stroke-miterlimit:10" transform="matrix(1 0 0 -1 0 841.919)"/>
</svg>
